<?xml version="1.0" encoding="utf-8"?>
<!-- Svg Vector Icons : http://www.onlinewebfonts.com/icon -->
<!DOCTYPE svg PUBLIC "-//W3C//DTD SVG 1.1//EN" "http://www.w3.org/Graphics/SVG/1.1/DTD/svg11.dtd">
<svg version="1.1" xmlns="http://www.w3.org/2000/svg" xmlns:xlink="http://www.w3.org/1999/xlink" x="0px" y="0px" viewBox="0 0 1000 1000" enable-background="new 0 0 1000 1000" xml:space="preserve">
<metadata> Svg Vector Icons : http://www.onlinewebfonts.com/icon </metadata>
<g><g transform="translate(0.000000,511.000000) scale(0.100000,-0.100000)"><path d="M4928.5,3651.2c-23-23-30.6-216.9-30.6-714.6v-683.9h-112.3c-204.2,0-696.7-76.6-997.9-153.1C2195.3,1688.6,883.5,443.2,357.8-1156.9C199.5-1641.8,100-2236.5,100-2716.3v-237.3h4900h4900v214.4c0,495.1-97,1094.9-257.8,1582.3C9185.4,234,8123.8,1374.7,6789,1910.7c-464.5,186.3-1179,342-1574.6,342h-112.3v186.3v186.3l104.6-10.2c56.2-5.1,204.2,10.2,329.2,33.2c257.8,51,319,40.8,477.2-66.4l109.7-76.6v456.8V3419l-107.2,48.5c-109.7,48.5-142.9,51-747.8,28.1c-145.5-5.1-153.1-2.5-160.8,58.7C5089.3,3671.6,5000,3722.7,4928.5,3651.2z M5862.6,3309.2c53.6-15.3,56.2-30.6,56.2-229.7v-211.8l-91.9,15.3c-51,7.7-204.2-5.1-342-30.6c-135.3-25.5-278.2-38.3-316.5-28.1c-66.3,15.3-66.3,20.4-66.3,232.2v216.9l122.5,2.6c66.4,0,165.9,10.2,222,20.4C5571.7,3324.5,5783.5,3329.6,5862.6,3309.2z M5854.9,1767.8c607.4-130.2,1214.8-393,1697.1-735c278.2-196.5,824.3-727.3,1015.7-987.7c520.6-706.9,824.3-1513.4,911.1-2416.8l17.9-173.5H7860.9H6225v1199.5v1199.5H5000H3775v-1199.5v-1199.5H2141.7H508.3v104.6c0,150.6,71.5,615.1,130.2,844.7C1069.8,114,2470.9,1453.9,4150.2,1765.2c410.9,76.6,390.5,76.6,939.2,66.4C5490,1823.9,5655.9,1811.1,5854.9,1767.8z M5816.7-1550v-995.3H5000h-816.7v995.3v995.3H5000h816.7V-1550z"/><path d="M1733.3-963v-816.7H2550h816.7V-963v816.7H2550h-816.7V-963z M2958.3-963v-408.3H2550h-408.3V-963v408.3H2550h408.3V-963z"/><path d="M6633.3-963v-816.7H7450h816.7V-963v816.7H7450h-816.7V-963z M7858.3-963v-408.3H7450h-408.3V-963v408.3H7450h408.3V-963z"/><path d="M100-3259.9V-3464h4900h4900v204.2v204.2H5000H100V-3259.9z"/></g></g>
</svg>