<?xml version="1.0" encoding="iso-8859-1"?>
<!-- Generator: Adobe Illustrator 19.0.0, SVG Export Plug-In . SVG Version: 6.00 Build 0)  -->
<svg version="1.1" id="Layer_1" xmlns="http://www.w3.org/2000/svg" xmlns:xlink="http://www.w3.org/1999/xlink" x="0px" y="0px"
	 viewBox="0 0 203 203" style="enable-background:new 0 0 203 203;" xml:space="preserve">
<g>
	<g>
		<g>
			<path d="M175,113.838V96.25c0-13.508-10.992-24.5-24.507-24.5H140V47h-7v24.75h-25.479L94.319,32.143
				C93.844,30.714,92.507,29.75,91,29.75H56H38.5c-1.934,0-3.5,1.566-3.5,3.5v38.5H21c-1.934,0-3.5,1.566-3.5,3.5v41.165
				C7.197,121.093,0,131.462,0,143.5c0,16.403,13.337,29.75,29.729,29.75H173.27c16.393,0,29.73-13.347,29.73-29.75
				C203,127.681,190.586,114.742,175,113.838z M59.5,36.75h28.978l11.665,35H59.5V36.75z M42,36.75h10.5v35H42V36.75z M24.5,78.75
				h14H56h49h28h7h10.493c9.653,0,17.507,7.851,17.507,17.5v17.5H29.729H24.5V78.75z M173.271,166.25H29.729
				C17.196,166.25,7,156.044,7,143.5s10.196-22.75,22.729-22.75H171.5h1.771c12.533,0,22.729,10.206,22.729,22.75
				S185.804,166.25,173.271,166.25z"/>
			<path d="M61.25,124.25c-6.509,0-12.264,3.257-15.75,8.218c-3.486-4.961-9.241-8.218-15.75-8.218
				c-10.613,0-19.25,8.637-19.25,19.25c0,10.613,8.637,19.25,19.25,19.25c6.509,0,12.264-3.257,15.75-8.218
				c3.486,4.961,9.241,8.218,15.75,8.218c10.613,0,19.25-8.637,19.25-19.25C80.5,132.887,71.863,124.25,61.25,124.25z M29.75,155.75
				c-6.754,0-12.25-5.496-12.25-12.25c0-6.754,5.496-12.25,12.25-12.25S42,136.746,42,143.5C42,150.254,36.504,155.75,29.75,155.75z
				 M61.25,155.75c-6.754,0-12.25-5.496-12.25-12.25c0-6.754,5.496-12.25,12.25-12.25s12.25,5.496,12.25,12.25
				C73.5,150.254,68.004,155.75,61.25,155.75z"/>
			<path d="M173.25,124.25c-6.509,0-12.264,3.257-15.75,8.218c-3.486-4.961-9.241-8.218-15.75-8.218
				c-10.613,0-19.25,8.637-19.25,19.25c0,10.613,8.637,19.25,19.25,19.25c6.509,0,12.264-3.257,15.75-8.218
				c3.486,4.961,9.241,8.218,15.75,8.218c10.613,0,19.25-8.637,19.25-19.25C192.5,132.887,183.863,124.25,173.25,124.25z
				 M141.75,155.75c-6.754,0-12.25-5.496-12.25-12.25c0-6.754,5.496-12.25,12.25-12.25c6.754,0,12.25,5.496,12.25,12.25
				C154,150.254,148.504,155.75,141.75,155.75z M173.25,155.75c-6.754,0-12.25-5.496-12.25-12.25c0-6.754,5.496-12.25,12.25-12.25
				c6.754,0,12.25,5.496,12.25,12.25C185.5,150.254,180.004,155.75,173.25,155.75z"/>
			<rect x="80.5" y="85.75" width="17.5" height="7"/>
		</g>
	</g>
</g>
<g>
</g>
<g>
</g>
<g>
</g>
<g>
</g>
<g>
</g>
<g>
</g>
<g>
</g>
<g>
</g>
<g>
</g>
<g>
</g>
<g>
</g>
<g>
</g>
<g>
</g>
<g>
</g>
<g>
</g>
</svg>
